<svg width="398" height="399" viewBox="0 0 398 399" fill="none" xmlns="http://www.w3.org/2000/svg">
<path d="M217.3 396.76C146.1 396.76 106.9 386.66 82 361.76C57.1 336.86 47 297.76 47 226.46C47 155.16 57.1 115.96 82 91.1602C106.9 66.3602 146 56.1602 217.3 56.1602C288.6 56.1602 327.7 66.2602 352.6 91.1602C377.5 116.06 387.6 155.16 387.6 226.46C387.6 297.76 377.5 336.86 352.6 361.76C327.7 386.66 288.5 396.76 217.3 396.76ZM217.3 76.2602C152 76.2602 116.9 84.6602 96.2 105.36C75.5 126.06 67.1 161.16 67.1 226.46C67.1 291.76 75.5 326.86 96.2 347.56C116.9 368.26 152 376.66 217.3 376.66C282.6 376.66 317.7 368.26 338.4 347.56C359.1 326.86 367.5 291.76 367.5 226.46C367.5 161.16 359.1 126.06 338.4 105.36C317.7 84.6602 282.6 76.2602 217.3 76.2602Z" fill="#F36A22"/>
<path d="M382.837 73.4812L383 73.406C364.7 115.53 312.045 140.072 261.521 150.643C203.514 162.808 142.449 162.268 87.1741 185.757C63.0463 196.028 40.6106 210.587 27.2118 230C29.9191 212.794 32.827 195.589 34.9202 178.396C35.4341 178.559 36.1736 177.994 35.8226 177.568C35.6056 177.29 35.3712 177.026 35.1207 176.778L35.2335 175.913C35.3087 175.16 34.3561 174.972 33.7294 175.311C30.2656 172.085 26.6116 169.07 22.7873 166.281C18.225 162.645 13.7378 158.895 9 155.446C80.0925 65.9569 228.82 105.598 322.423 46.8952C341.325 35.0444 356.98 19.7574 364.475 2C363.221 13.6126 361.442 25.037 357.23 36.6997C351.816 51.7484 342.967 65.38 333.867 79.3377C333.729 79.5508 333.93 79.7013 334.13 79.6637L335.07 80.6419C334.331 81.0056 334.381 82.0339 335.346 81.9712C350.424 81.0056 368.16 77.4817 382.837 73.4812Z" fill="#F36A22"/>
<path d="M99.6791 153.856L96.0304 154.581C95.6211 154.662 95.2622 154.63 94.9537 154.485C94.6546 154.325 94.4163 154.105 94.239 153.824L91.316 149.026L80.8084 151.114L79.9423 156.666C79.9022 156.953 79.7639 157.236 79.5273 157.514C79.3025 157.79 78.9913 157.967 78.5937 158.046L74.9274 158.775L79.8503 131.429L84.6743 130.47L99.6791 153.856ZM81.3564 147.541L89.4433 145.934L84.6791 138.11C84.4643 137.763 84.2193 137.356 83.944 136.888C83.678 136.406 83.4039 135.883 83.1216 135.319C83.0764 135.948 83.0231 136.536 82.9616 137.083C82.9118 137.628 82.8493 138.108 82.774 138.525L81.3564 147.541ZM125.803 135.48C126.173 137.34 126.202 139.109 125.892 140.787C125.581 142.466 124.976 143.978 124.076 145.324C123.177 146.67 121.999 147.809 120.543 148.743C119.088 149.676 117.401 150.334 115.483 150.715L105.8 152.639L100.759 127.274L110.442 125.349C112.36 124.968 114.171 124.936 115.875 125.254C117.577 125.56 119.101 126.163 120.447 127.063C121.791 127.95 122.927 129.111 123.856 130.543C124.785 131.975 125.434 133.621 125.803 135.48ZM120.979 136.439C120.703 135.047 120.268 133.839 119.675 132.814C119.08 131.777 118.362 130.948 117.521 130.325C116.678 129.69 115.719 129.267 114.643 129.055C113.579 128.841 112.428 128.857 111.188 129.103L106.259 130.083L109.808 147.941L114.737 146.961C115.977 146.715 117.047 146.289 117.948 145.685C118.861 145.078 119.586 144.326 120.125 143.428C120.662 142.519 121.008 141.478 121.164 140.304C121.317 139.119 121.256 137.831 120.979 136.439ZM126.993 122.06L130.8 121.304C131.209 121.222 131.562 121.255 131.859 121.403C132.155 121.551 132.4 121.77 132.591 122.06L141.63 136.347C141.929 136.81 142.226 137.328 142.523 137.902C142.828 138.461 143.129 139.057 143.425 139.691C143.427 138.293 143.524 137.04 143.717 135.932L146.589 119.278C146.641 118.988 146.78 118.705 147.004 118.43C147.229 118.154 147.54 117.977 147.938 117.898L151.745 117.141L146.541 144.543L142.278 145.39L126.993 122.06ZM182.257 137.445L178.608 138.17C178.198 138.251 177.84 138.219 177.531 138.074C177.232 137.915 176.994 137.695 176.816 137.414L173.893 132.615L163.386 134.704L162.52 140.255C162.48 140.543 162.341 140.825 162.105 141.103C161.88 141.379 161.569 141.556 161.171 141.635L157.505 142.364L162.428 115.018L167.252 114.059L182.257 137.445ZM163.934 131.13L172.021 129.523L167.256 121.699C167.042 121.352 166.797 120.945 166.521 120.477C166.255 119.995 165.981 119.472 165.699 118.908C165.654 119.537 165.6 120.125 165.539 120.673C165.489 121.217 165.427 121.698 165.351 122.114L163.934 131.13ZM185.81 110.371C186.02 110.33 186.198 110.306 186.343 110.302C186.486 110.286 186.615 110.296 186.732 110.334C186.859 110.357 186.985 110.411 187.111 110.496C187.235 110.568 187.377 110.674 187.538 110.812L204.224 125.129C204.096 124.729 203.982 124.338 203.882 123.957C203.791 123.562 203.712 123.195 203.644 122.855L200.58 107.436L204.738 106.61L209.778 131.975L207.34 132.46C206.966 132.534 206.644 132.538 206.376 132.469C206.107 132.401 205.825 132.238 205.531 131.981L188.912 117.723C189.021 118.091 189.119 118.46 189.205 118.832C189.301 119.19 189.379 119.521 189.439 119.825L192.535 135.402L188.377 136.229L183.336 110.863L185.81 110.371ZM234.652 120.814C234.909 120.763 235.151 120.818 235.378 120.98L237.638 122.628C236.863 124.107 235.788 125.336 234.414 126.314C233.052 127.29 231.318 127.987 229.213 128.405C227.33 128.779 225.571 128.795 223.934 128.451C222.31 128.105 220.851 127.465 219.559 126.531C218.267 125.596 217.177 124.391 216.288 122.914C215.41 121.435 214.784 119.754 214.41 117.871C214.031 115.965 214.001 114.16 214.319 112.456C214.634 110.74 215.251 109.195 216.169 107.821C217.088 106.447 218.279 105.286 219.744 104.339C221.218 103.377 222.92 102.705 224.85 102.321C226.733 101.947 228.436 101.924 229.961 102.254C231.494 102.569 232.863 103.124 234.066 103.918L232.923 106.424C232.857 106.583 232.759 106.73 232.628 106.866C232.508 106.999 232.32 107.091 232.063 107.142C231.794 107.196 231.498 107.145 231.175 106.99C230.853 106.836 230.451 106.678 229.969 106.519C229.488 106.359 228.893 106.24 228.185 106.162C227.488 106.082 226.631 106.143 225.613 106.345C224.42 106.582 223.363 107.011 222.441 107.632C221.528 108.239 220.786 109 220.214 109.916C219.654 110.83 219.28 111.883 219.092 113.075C218.912 114.253 218.96 115.533 219.234 116.913C219.518 118.339 219.969 119.569 220.587 120.601C221.217 121.63 221.953 122.457 222.794 123.08C223.635 123.703 224.564 124.126 225.581 124.349C226.595 124.561 227.641 124.56 228.717 124.346C229.36 124.218 229.932 124.068 230.432 123.896C230.945 123.721 231.402 123.515 231.804 123.277C232.219 123.036 232.595 122.761 232.935 122.45C233.284 122.126 233.616 121.75 233.932 121.322C234.028 121.193 234.135 121.087 234.252 121.003C234.367 120.907 234.5 120.844 234.652 120.814ZM256.408 96.3414L257.154 100.095L245.909 102.33L247.307 109.364L256.166 107.604L256.888 111.235L248.029 112.995L249.455 120.17L260.699 117.936L261.449 121.707L245.45 124.886L240.409 99.5207L256.408 96.3414ZM289.039 103.04C289.409 104.9 289.438 106.669 289.128 108.347C288.817 110.026 288.212 111.538 287.312 112.884C286.413 114.23 285.235 115.369 283.779 116.303C282.324 117.236 280.637 117.894 278.719 118.275L269.036 120.199L263.995 94.8335L273.678 92.9092C275.596 92.528 277.407 92.4963 279.112 92.8141C280.813 93.1201 282.337 93.723 283.683 94.6225C285.027 95.5104 286.163 96.6705 287.092 98.1027C288.021 99.5349 288.67 101.181 289.039 103.04ZM284.215 103.999C283.939 102.607 283.504 101.399 282.911 100.374C282.316 99.3373 281.598 98.5075 280.757 97.8845C279.914 97.2498 278.955 96.8265 277.879 96.6148C276.816 96.4007 275.664 96.4168 274.424 96.6631L269.495 97.6427L273.044 115.5L277.973 114.521C279.213 114.275 280.283 113.849 281.184 113.245C282.097 112.638 282.823 111.886 283.362 110.988C283.898 110.079 284.244 109.038 284.4 107.864C284.553 106.679 284.492 105.391 284.215 103.999Z" fill="white"/>
<g clip-path="url(#clip0)">
<path d="M192.437 317.493C192.437 317.493 185.013 321.819 197.721 323.283C213.115 325.042 220.984 324.79 237.949 321.573C237.949 321.573 242.409 324.375 248.638 326.802C210.607 343.133 162.565 325.856 192.437 317.493Z" fill="#F36A22"/>
<path d="M187.79 296.183C187.79 296.183 179.463 302.358 192.18 303.676C208.625 305.376 221.612 305.515 244.085 301.179C244.085 301.179 247.194 304.337 252.081 306.063C206.099 319.535 154.882 307.126 187.79 296.183Z" fill="#F36A22"/>
<path d="M226.968 260.032C236.339 270.842 224.506 280.57 224.506 280.57C224.506 280.57 248.3 268.262 237.372 252.851C227.166 238.479 219.339 231.338 261.711 206.717C261.711 206.717 195.202 223.36 226.968 260.032Z" fill="#F36A22"/>
<path d="M277.268 333.257C277.268 333.257 282.762 337.792 271.217 341.301C249.265 347.964 179.849 349.976 160.565 341.567C153.633 338.545 166.633 334.352 170.722 333.472C174.986 332.546 177.423 332.718 177.423 332.718C169.714 327.277 127.596 343.402 156.029 348.02C233.571 360.62 297.381 342.347 277.268 333.257Z" fill="#F36A22"/>
<path d="M196.007 274.102C196.007 274.102 160.698 282.505 183.503 285.556C193.132 286.848 212.328 286.555 230.208 285.054C244.82 283.819 259.493 281.194 259.493 281.194C259.493 281.194 254.341 283.404 250.613 285.955C214.757 295.403 145.49 291.008 165.431 281.343C182.295 273.175 196.007 274.102 196.007 274.102Z" fill="#F36A22"/>
<path d="M259.348 309.576C295.797 290.599 278.944 272.362 267.181 274.819C264.298 275.42 263.013 275.941 263.013 275.941C263.013 275.941 264.083 274.261 266.127 273.534C289.398 265.337 307.295 297.71 258.615 310.532C258.615 310.533 259.179 310.027 259.348 309.576Z" fill="#F36A22"/>
<path d="M237.372 166.96C237.372 166.96 257.558 187.192 218.226 218.303C186.686 243.259 211.034 257.489 218.213 273.746C199.803 257.103 186.292 242.453 195.356 228.817C208.66 208.801 245.517 199.097 237.372 166.96Z" fill="#F36A22"/>
<path d="M199.589 360.999C234.576 363.243 288.302 359.754 289.574 343.167C289.574 343.167 287.128 349.455 260.66 354.448C230.798 360.079 193.967 359.422 172.123 355.813C172.123 355.813 176.594 359.521 199.589 360.999Z" fill="#F36A22"/>
</g>
<defs>
<clipPath id="clip0">
<rect width="144" height="195" fill="white" transform="translate(146 158)"/>
</clipPath>
</defs>
</svg>
